# xmcd
#
# Track frame offsets:
#	150
#	20296
#	38203
#	52158
#	69668
#	87321
#	107536
#	121846
#	140093
#	155971
#	171481
#	188051
#	205161
#
# Disc length: 2955 seconds
#
# Revision: 4
# Processed by: cddbd v1.5.2PL0 Copyright (c) Steve Scherf et al.
# Submitted via: EasyCDDAExtractor 15.3.0.1
#
DISCID=bd0b890d
DTITLE=Jennifer Peña - Seduccion
DYEAR=2004
DGENRE=Latin
TTITLE0=Vivo Y Muero En Tu Piel
TTITLE1=Cumba Iho
TTITLE2=Para Olvidarte De Mi
TTITLE3=Hasta El Fin Del Mundo
TTITLE4=Ya Veras
TTITLE5=Como Saber
TTITLE6=Si Yo Me Vuelvo A Enamorar
TTITLE7=Fuera De Mi Vida
TTITLE8=No Hay Nadie Igual Como Tu (Can't Take My Eyes Off Of You)
TTITLE9=Aunque Me Cueste La Vida
TTITLE10=Vivo Y Muero En Tu Piel (Cumbia Norteña) (Bonus Track)
TTITLE11=Vivo Y Muero En Tu Piel (Salsa) (Bonus Track)
TTITLE12=Hasta El Fin Del Mundo (Cumbia Norteña) (Bonus Track)
EXTD=YEAR: 2004
EXTT0=
EXTT1=
EXTT2=
EXTT3=
EXTT4=
EXTT5=
EXTT6=
EXTT7=
EXTT8=
EXTT9=
EXTT10=
EXTT11=
EXTT12=
PLAYORDER=
